<?xml version="1.0" encoding="UTF-8"?>
<svg version="1.1" xmlns="http://www.w3.org/2000/svg" width="512" height="512">
<path d="M0 0 C30.67366269 27.85820573 47.75415582 69.33095353 50.12988281 110.23632812 C52.41976022 163.48176047 16.91650007 212.5699847 -14 253 C-14.49048828 253.64211426 -14.98097656 254.28422852 -15.48632812 254.94580078 C-21.24396419 262.44835308 -27.23816385 269.72645937 -33.3828125 276.9140625 C-35.80691756 279.75605565 -38.15731399 282.65290065 -40.5 285.5625 C-44.62690206 290.63607493 -49.00102558 295.43741142 -53.4453125 300.23046875 C-55.50113722 302.45918393 -57.51616957 304.70767919 -59.5 307 C-65.84846158 314.30988725 -72.36847034 321.48208041 -79.28808594 328.25561523 C-80.98446796 329.98417336 -82.55439591 331.7741219 -84.125 333.6171875 C-88.29578605 338.41084028 -92.74751759 342.89466094 -97.25 347.375 C-98.05179688 348.18066406 -98.85359375 348.98632812 -99.6796875 349.81640625 C-100.45054687 350.58597656 -101.22140625 351.35554688 -102.015625 352.1484375 C-102.70946289 352.84114746 -103.40330078 353.53385742 -104.11816406 354.24755859 C-106.91997722 356.85671984 -108.76686455 357.95500895 -112.5625 358.6875 C-118.35005356 358.45766935 -121.5084243 354.59502271 -125.37304688 350.65332031 C-127.28366124 348.71174161 -129.22706103 346.80575057 -131.171875 344.8984375 C-137.47263086 338.68510676 -143.67167708 332.47037937 -149.45239258 325.76586914 C-151.3732599 323.57409862 -153.4087078 321.52886557 -155.5 319.5 C-158.84933729 316.19013302 -161.99925956 312.79253051 -165.0625 309.21875 C-166.98583924 307.01621635 -168.96060959 304.86724931 -170.94970703 302.72412109 C-175.72759641 297.57303584 -180.28697368 292.31106294 -184.6953125 286.8359375 C-186.75803341 284.29774194 -188.85842527 281.80163533 -190.98339844 279.31591797 C-197.20312158 272.03775071 -203.16207752 264.58688302 -209 257 C-209.5460791 256.29584961 -210.0921582 255.59169922 -210.65478516 254.86621094 C-225.8135278 235.27003675 -239.97038905 214.67717445 -252 193 C-252.37914551 192.3292041 -252.75829102 191.6584082 -253.14892578 190.96728516 C-274.22586396 153.54712515 -281.43639589 115.59167962 -270.3125 73.6875 C-267.49159346 63.66627829 -263.69254045 54.28221943 -259 45 C-258.61827637 44.24203125 -258.23655273 43.4840625 -257.84326172 42.703125 C-252.30214171 31.87079199 -245.95758983 22.20052681 -238 13 C-237.5447998 12.47180664 -237.08959961 11.94361328 -236.62060547 11.39941406 C-210.48434147 -18.62711445 -173.80308625 -39.30652735 -134 -44 C-133.18917969 -44.10957031 -132.37835938 -44.21914063 -131.54296875 -44.33203125 C-82.5321107 -49.97844347 -36.27596669 -32.39439034 0 0 Z M-165.64453125 73.171875 C-177.25505371 87.11220379 -182.76666153 105.07544438 -181.8125 123.125 C-179.9167723 142.42695476 -171.41799045 159.15122036 -156.75 171.875 C-141.93454252 183.1995783 -124.58935993 188.62681698 -106 187 C-92.38434937 185.09468829 -80.82389831 180.45329919 -70 172 C-69.31292969 171.48953125 -68.62585938 170.9790625 -67.91796875 170.453125 C-54.58727534 159.83063952 -46.69955629 142.77977889 -44.40234375 126.20703125 C-43.71487078 120.03945674 -44.08448378 114.12747073 -45 108 C-45.15339844 106.94554687 -45.30679688 105.89109375 -45.46484375 104.8046875 C-48.07839225 90.89992622 -54.81469899 78.74627941 -65 69 C-65.68578125 68.29488281 -66.3715625 67.58976562 -67.078125 66.86328125 C-75.82164207 58.36263965 -87.15343248 53.44359891 -99 51 C-100.093125 50.773125 -101.18625 50.54625 -102.3125 50.3125 C-127.3070087 48.1943213 -148.14428501 55.03171515 -165.64453125 73.171875 Z " fill="#2A8CFF" transform="translate(369,76)"/>
<path d="M0 0 C1.99676551 1.96330017 3.8828664 3.92214004 5.75 6 C6.25660156 6.5465625 6.76320313 7.093125 7.28515625 7.65625 C11 11.74157682 11 11.74157682 11 14 C10.0298999 14.15033691 9.0597998 14.30067383 8.06030273 14.45556641 C-39.09164648 20.21748361 -39.09164648 20.21748361 -80 42 C-82.27758933 44.85054591 -82.27758933 44.85054591 -82.125 48.25 C-80.15566852 54.81443827 -75.62792528 57.53362411 -69.80078125 60.78515625 C-29.47982719 81.21436499 20.6117665 83.91372365 65 85 C65.93263672 85.02336426 66.86527344 85.04672852 67.82617188 85.07080078 C116.61787422 86.10100174 191.59857729 87.15627844 231.51953125 55.45703125 C233.98748181 53.02815115 235.81805486 51.01369436 236.4375 47.5625 C235.67068713 43.07116746 232.82726054 40.59172913 229.21484375 38.0078125 C202.81823603 22.84313441 172.69672142 18.41113697 143 14 C146.03674705 7.78097757 149.69020258 1.34742045 156 -2 C161.73434737 -2.98454836 167.54122225 -1.16988732 173.07080078 0.25878906 C176.15695028 1.03971504 179.25272039 1.69639157 182.37109375 2.3359375 C205.44778678 7.17377207 236.12658115 13.92430915 250.7109375 34.40234375 C254.59966024 41.20223738 255.29874855 47.79646139 253.40625 55.37890625 C249.2191111 66.52522507 238.27786323 74.19907337 227.82958984 78.99658203 C200.94440706 90.72679409 172.51176939 96.04189886 143.5 99.3125 C142.78032043 99.39372101 142.06064087 99.47494202 141.31915283 99.55862427 C126.36896053 101.21949485 111.4977092 102.15792957 96.453125 102.203125 C95.0000709 102.21014601 93.54701711 102.21723284 92.09396362 102.22438049 C87.47930455 102.24377229 82.86469572 102.24881385 78.25 102.25 C77.07202976 102.25066278 77.07202976 102.25066278 75.87026215 102.25133896 C52.79057915 102.25815295 29.91255919 102.11567415 7 99 C5.63739444 98.82110121 4.27476347 98.64239588 2.91210938 98.46386719 C-75.78699746 87.99182939 -75.78699746 87.99182939 -95.4375 62.875 C-100.22085827 56.30639975 -100.95331279 49.96413392 -100 42 C-96.09645963 29.69687722 -86.73141989 23.59230441 -75.81884766 17.92578125 C-56.05488805 7.86605846 -34.24808115 3.18418052 -12.53027344 -0.55371094 C-10.51417595 -0.90930976 -8.50846652 -1.3236661 -6.5078125 -1.7578125 C-3.45026287 -2.05308988 -2.48335641 -1.79896685 0 0 Z " fill="#2A8CFF" transform="translate(179,378)"/>
</svg>
